<?xml version="1.0"?>
<svg width="640" height="479.99999999999994" xmlns="http://www.w3.org/2000/svg" xmlns:svg="http://www.w3.org/2000/svg">
 <!-- Created with SVG-edit - http://svg-edit.googlecode.com/ -->

 <g>
  <title>Layer 1</title>
  <text stroke="#000000" xml:space="preserve" text-anchor="middle" font-family="serif" font-size="24" id="svg_11" y="253" x="334" stroke-linecap="null" stroke-linejoin="null" stroke-dasharray="null" stroke-width="0" fill="#000000"/>
  <text stroke="#000000" transform="matrix(9.806452876664137,0,0,5.948649625141683,-1134.8913613937207,-695.9258932071042) " xml:space="preserve" text-anchor="middle" font-family="serif" font-size="24" id="svg_23" y="161.657717" x="125.376097" stroke-linecap="null" stroke-linejoin="null" stroke-dasharray="null" stroke-width="0" fill="#0000ff">J</text>
  <text stroke="#000000" transform="matrix(9.399999618530273,0,0,5.961538314819336,-2372.8686422407627,-1344.3443112075329) " xml:space="preserve" text-anchor="middle" font-family="serif" font-size="24" id="svg_24" y="259.927112" x="275.568408" stroke-linecap="null" stroke-linejoin="null" stroke-dasharray="null" stroke-width="0" fill="#0000ff">J</text>
  <text stroke="#000000" transform="matrix(6.145270407199859,0,0,6.465135517099497,-2138.9480098802596,-877.0990807621047) " xml:space="preserve" text-anchor="middle" font-family="serif" font-size="24" id="svg_25" y="175.44951" x="406.582652" stroke-linecap="null" stroke-linejoin="null" stroke-dasharray="null" stroke-width="0" fill="#0000ff">B</text>
  <text stroke="#000000" transform="matrix(5.437762450490567,0,0,4.515948163407302,-2018.4237857366609,-936.9615806926195) " xml:space="preserve" text-anchor="middle" font-family="serif" font-size="24" id="svg_26" y="253.036381" x="464.9985" stroke-linecap="null" stroke-linejoin="null" stroke-dasharray="null" stroke-width="0" fill="#0000ff">V</text>
  <path stroke="#000000" id="svg_38" d="m100.271391,64.603652c5.231729,-0.019893 10.891282,1.1273 14.299126,4.816263c2.653936,2.719485 5.446387,5.606483 6.056895,9.248062c1.374893,6.432232 1.308197,13.237251 -0.96641,19.512834c-1.318024,3.116391 -4.366271,5.369904 -6.20409,8.25161c-2.428262,3.017482 -3.576223,6.685556 -3.254428,10.343127c-6.414785,0 -12.829562,0 -19.244345,0c-0.02103,-5.469736 -3.966658,-9.967596 -7.483255,-14.217826c-2.455234,-2.500706 -4.043681,-5.530083 -4.603751,-8.769273c-1.082186,-5.805482 -1.327844,-12.017992 1.177199,-17.584916c2.378456,-4.259253 5.292594,-8.933274 10.862665,-10.547498c2.986753,-0.93911 6.209493,-1.097285 9.360391,-1.052381l0.000003,-0.000002zm9.813184,51.797178c-6.459822,0 -12.919642,0 -19.379457,0c1.159232,2.042433 2.629488,4.281636 1.815708,6.600508c1.077451,2.016182 -0.301802,4.023789 1.471244,5.868733c0.65288,2.52853 4.369891,2.725489 6.859661,2.794689c2.690571,0.257139 5.681273,-0.385956 6.707519,-2.799012c2.134671,-1.290449 -0.438201,-2.862323 1.21583,-4.312995c-1.907277,-1.78258 1.418672,-2.714639 0.235608,-4.6496c0.324979,-1.321766 1.521456,-1.938802 1.073887,-3.502327l0,0.000002zm0.042105,0.005689c-6.459817,0 -12.91964,0 -19.379459,0c0.486752,1.984405 2.59197,3.860511 1.791581,5.857688c-0.455489,1.658079 1.439654,3.015332 0.302604,4.766245c0.866185,2.10069 2.599937,4.473208 5.54846,4.466452c2.848279,0.00417 6.715091,0.818217 8.479995,-1.626392c0.667488,-1.473142 2.822934,-2.35642 1.167982,-3.955041c2.052043,-1.324992 -1.376201,-3.287179 1.261031,-4.160378c-1.253935,-2.09127 1.352664,-3.294602 0.827806,-5.348578l0,0l0,0.000002zm0.081086,-0.043885c-6.459822,0 -12.919642,0 -19.379465,0c0.486752,1.984405 2.591965,3.860514 1.791573,5.857693c-0.455476,1.658075 1.439665,3.015328 0.302609,4.766241c1.120251,1.529557 2.319897,4.027065 4.667498,4.206566c2.576535,0.026211 5.153074,0.052412 7.729612,0.07863c1.765347,-1.629355 4.283649,-3.531224 2.899935,-5.703721c1.952157,-1.177523 -1.531475,-3.083146 1.160429,-3.856835c-1.253937,-2.09127 1.352666,-3.294595 0.827809,-5.348571l0,0l0,-0.000002zm-5.296034,14.636018c-2.737503,0 -5.475012,0 -8.212516,0c0.887183,0.552286 1.424123,1.83851 2.708244,1.558996c1.320235,-0.088858 2.803029,0.13316 4.023614,-0.146277c0.493552,-0.47091 0.987106,-0.941817 1.480655,-1.41272l0.000003,0zm-2.980566,-14.744404c0.946732,-11.994649 1.913288,-17.079628 5.47791,-24.338268c3.564622,-7.25864 0.766344,-4.836846 -7.198385,-5.621978c-7.964729,-0.785129 -3.574598,2.263465 -3.577839,7.867502c-0.00324,5.60404 -0.464146,8.413341 -0.981835,13.276281c0.511625,4.708994 -0.477931,4.741086 0.740648,8.512309" stroke-linecap="null" stroke-linejoin="null" stroke-dasharray="null" stroke-width="null" fill="#ffff00"/>
  <line stroke="#000000" id="svg_39" y2="54" x2="99" y1="29" x1="99" stroke-linecap="null" stroke-linejoin="null" stroke-dasharray="null" stroke-width="null" fill="none"/>
  <line stroke="#000000" id="svg_40" y2="53" x2="82" y1="38.999999" x1="71" stroke-linecap="null" stroke-linejoin="null" stroke-dasharray="null" stroke-width="null" fill="none"/>
  <line stroke="#000000" id="svg_41" y2="54" x2="113" y1="38.999999" x1="130" stroke-linecap="null" stroke-linejoin="null" stroke-dasharray="null" stroke-width="null" fill="none"/>
  <line stroke="#000000" id="svg_42" y2="65" x2="76" y1="61" x1="60" stroke-linecap="null" stroke-linejoin="null" stroke-dasharray="null" stroke-width="null" fill="none"/>
  <line stroke="#000000" id="svg_43" y2="69" x2="129" y1="58" x1="143" stroke-linecap="null" stroke-linejoin="null" stroke-dasharray="null" stroke-width="null" fill="none"/>
  <line stroke="#000000" id="svg_44" y2="86" x2="74" y1="92" x1="64" stroke-linecap="null" stroke-linejoin="null" stroke-dasharray="null" stroke-width="null" fill="none"/>
  <line stroke="#000000" id="svg_45" y2="88" x2="148.000001" y1="84" x1="128" stroke-linecap="null" stroke-linejoin="null" stroke-dasharray="null" stroke-width="null" fill="none"/>
  <line stroke="#000000" id="svg_46" y2="109" x2="70" y1="104" x1="76" stroke-linecap="null" stroke-linejoin="null" stroke-dasharray="null" stroke-width="null" fill="none"/>
  <line stroke="#000000" id="svg_47" y2="113" x2="129" y1="103" x1="124" stroke-linecap="null" stroke-linejoin="null" stroke-dasharray="null" stroke-width="null" fill="none"/>
  <path stroke="#000000" id="svg_51" d="m190.780444,273.205213c-4.48391,-0.671324 -6.030097,-5.361092 -3.356806,-8.170775c3.547796,-4.345367 11.136875,-7.274693 17.083007,-4.532876c0.118491,-15.352118 0.050127,-30.705079 0.068239,-46.057574c14.825993,-2.428208 29.685508,-4.720861 44.516684,-7.128969c-0.032127,17.149912 -0.06424,34.299823 -0.096359,51.449735c-2.323586,5.187161 -9.831616,8.784141 -16.369206,7.175686c-3.892157,-0.964559 -4.825253,-5.1238 -2.657939,-7.672223c2.967925,-3.801457 8.491972,-6.41149 14.045419,-5.699437c1.5848,-0.132725 3.918538,1.991454 3.248693,-0.411536c-0.055014,-13.564834 0.136825,-27.133283 -0.141554,-40.695262c-2.419596,-0.743688 -6.722627,0.967379 -9.820646,1.105814c-10.359916,1.669243 -20.741979,3.25003 -31.078102,5.016848c0.311871,15.030311 0.166443,30.069823 0.120014,45.103312c0.548758,3.431732 -1.735914,6.66437 -5.209777,8.453261c-2.997684,1.805238 -6.701311,2.455999 -10.351665,2.064003l-0.000003,-0.000007z" stroke-linecap="null" stroke-linejoin="null" stroke-dasharray="null" stroke-width="null" fill="#ff0000"/>
  <path id="svg_52" d="m322.407995,349.315922c3.826855,-12.530116 9.064766,-23.141825 14.033257,-28.430537c5.322938,-5.666012 2.961333,-8.123747 -2.529712,-2.632691c-2.310151,2.310135 -2.970192,0.632724 -2.970192,-7.548388c0,-19.51948 10.118521,-31.597567 34.464223,-41.138551c20.600075,-8.073127 35.787591,-17.151879 42.084662,-25.157294l5.131333,-6.523458l0,11.350173c0,14.034659 -4.354245,35.23763 -9.174,44.67274c-5.112898,10.009005 -22.637985,28.48415 -31.237828,32.931293c-7.704698,3.984277 -24.159462,5.157225 -32.953762,2.349061c-4.382561,-1.399406 -5.773448,-0.330189 -8.044262,6.18387c-1.51003,4.331674 -2.745516,10.494157 -2.745516,13.694354c0,3.633111 -1.457146,5.818527 -3.879535,5.818527c-2.87707,0 -3.44003,-1.439021 -2.178664,-5.569099l-0.000004,0z" stroke-linecap="null" stroke-linejoin="null" stroke-dasharray="null" stroke-width="null" stroke="#000000" fill="#00ff00"/>
  <path id="svg_53" d="m565.344592,177.458611c-12.430479,0 -23.100078,6.446317 -28.322661,15.752487c-2.085872,-1.164506 -4.386585,-1.869613 -6.841989,-1.869613c-7.425221,0 -13.604063,5.973266 -15.513812,14.081774c-3.2597,-1.288426 -7.049828,-2.068509 -11.098344,-2.068509c-12.145558,0 -21.997793,6.645265 -21.997793,14.837575c0,7.394951 8.08014,13.474281 18.5768,14.598895c-0.470448,0.798199 -0.835363,1.588639 -0.835363,2.426522c0,7.843697 21.489437,14.240878 47.973491,14.240878c26.48405,0 47.973517,-6.397186 47.973491,-14.240878c0,-0.527752 -0.327564,-0.998727 -0.517125,-1.511605c1.160006,0.288476 2.308577,0.596688 3.580113,0.596688c7.084885,0.000022 12.84862,-4.813986 12.84862,-10.740336c0,-5.926354 -5.763734,-10.740332 -12.84862,-10.740332c-0.868236,0 -1.606507,0.2999 -2.426522,0.437571c0.717022,-2.369653 1.193367,-4.787571 1.193367,-7.359119c0,-15.687381 -14.200081,-28.44199 -31.743645,-28.44199l-0.000009,-0.000009z" stroke-linecap="null" stroke-linejoin="null" stroke-dasharray="null" stroke-width="null" stroke="#000000" fill="#00ffff"/>
  <line id="svg_54" y2="176" x2="103" y1="129" x1="102" stroke-linecap="null" stroke-linejoin="null" stroke-dasharray="null" stroke-width="null" stroke="#000000" fill="none"/>
  <line id="svg_55" y2="174" x2="72" y1="126" x1="93" stroke-linecap="null" stroke-linejoin="null" stroke-dasharray="null" stroke-width="null" stroke="#000000" fill="none"/>
  <line id="svg_56" y2="172" x2="137" y1="121" x1="110" stroke-linecap="null" stroke-linejoin="null" stroke-dasharray="null" stroke-width="null" stroke="#000000" fill="none"/>
  <line id="svg_68" y2="277" x2="139" y1="277" x1="35" stroke-linecap="null" stroke-linejoin="null" stroke-dasharray="null" stroke-width="null" stroke="#000000" fill="none"/>
  <line id="svg_69" y2="277" x2="144" y1="277" x1="139" stroke-linecap="null" stroke-linejoin="null" stroke-dasharray="null" stroke-width="null" stroke="#000000" fill="none"/>
  <line id="svg_70" y2="291" x2="128" y1="290" x1="49" stroke-linecap="null" stroke-linejoin="null" stroke-dasharray="null" stroke-width="null" stroke="#000000" fill="none"/>
  <line id="svg_71" y2="301" x2="114" y1="301" x1="67" stroke-linecap="null" stroke-linejoin="null" stroke-dasharray="null" stroke-width="null" stroke="#000000" fill="none"/>
  <line id="svg_72" y2="309" x2="106" y1="309" x1="79" stroke-linecap="null" stroke-linejoin="null" stroke-dasharray="null" stroke-width="null" stroke="#000000" fill="none"/>
  <line id="svg_73" y2="319" x2="100" y1="319" x1="94" stroke-linecap="null" stroke-linejoin="null" stroke-dasharray="null" stroke-width="null" stroke="#000000" fill="none"/>
  <ellipse stroke="#000000" id="svg_77" ry="23.411077" rx="300.163253" cy="387.881624" cx="329.197201" stroke-linecap="null" stroke-linejoin="null" stroke-dasharray="null" stroke-width="null" fill="#aad4ff"/>
 </g>
</svg>